<?xml version="1.0" encoding="UTF-8"?>
<svg id="Camada_2" data-name="Camada 2" xmlns="http://www.w3.org/2000/svg" xmlns:xlink="http://www.w3.org/1999/xlink" viewBox="0 0 96.82 133.86">
  <defs>
    <style>
      .cls-1 {
        fill: url(#linear-gradient-2);
      }

      .cls-2 {
        fill: #0a4e8a;
      }

      .cls-3 {
        fill: #00adee;
      }

      .cls-4 {
        fill: #134b87;
      }

      .cls-5 {
        fill: url(#linear-gradient);
      }
    </style>
    <linearGradient id="linear-gradient" x1="22.27" y1="-344.6" x2="82.59" y2="-344.6" gradientTransform="translate(3.61 -241.51) rotate(1.33) scale(1 -.93)" gradientUnits="userSpaceOnUse">
      <stop offset="0" stop-color="#3c1955"/>
      <stop offset="1" stop-color="#ec3092"/>
    </linearGradient>
    <linearGradient id="linear-gradient-2" x1="43.49" y1="-295.49" x2="43.49" y2="-402.19" gradientTransform="translate(3.61 -241.51) rotate(1.33) scale(1 -.93)" gradientUnits="userSpaceOnUse">
      <stop offset="0" stop-color="#a559a2"/>
      <stop offset="1" stop-color="#bd5ea3"/>
    </linearGradient>
  </defs>
  <g id="Camada_1-2" data-name="Camada 1">
    <g>
      <path class="cls-5" d="m62.6,26.8l17.38.4-37.38,69.51,17.02,37.16-21.04-.49c-3.15-.07-5.97-1.94-7.29-4.82l-11.99-26.18c-1.81-3.95-1.66-8.52.39-12.35l29.92-55.64c2.57-4.78,7.59-7.71,13-7.59Z"/>
      <path class="cls-2" d="m62.6,26.8l17.38.4-37.38,69.51,17.02,37.16-21.04-.49c-3.15-.07-5.97-1.94-7.29-4.82l-11.99-26.18c-1.81-3.95-1.66-8.52.39-12.35l29.92-55.64c2.57-4.78,7.59-7.71,13-7.59Z"/>
      <path class="cls-1" d="m49.6,34.39c-14.9,27.71-16.34,41.93-7,62.32l17.02,37.16-21.04-.49c-3.15-.07-5.97-1.94-7.29-4.82l-11.99-26.18c-1.81-3.95-1.66-8.52.39-12.35l29.92-55.64Z"/>
      <path class="cls-3" d="m49.6,34.39c-14.9,27.71-16.34,41.93-7,62.32l17.02,37.16-21.04-.49c-3.15-.07-5.97-1.94-7.29-4.82l-11.99-26.18c-1.81-3.95-1.66-8.52.39-12.35l29.92-55.64Z"/>
      <path class="cls-4" d="m19.69,90.03l8.44-15.7c-.76,9.08,1.23,17.43,5.7,27.2l14.69,32.08-9.95-.23c-3.15-.07-5.97-1.94-7.29-4.82l-11.99-26.18c-1.81-3.95-1.66-8.52.39-12.35Z"/>
    </g>
    <path class="cls-3" d="m36.08,25.53c.48-.14,1-.07,1.54.22.57.31.94.75,1.12,1.32l3.17,10.56c.09.31.12.6.08.87-.04.28-.09.54-.15.8-.17.17-.35.35-.54.54-.2.19-.44.36-.73.49l-21.62,6.56,6.43,21.67c.11.69.06,1.23-.16,1.63-.29.54-.79.92-1.49,1.13l-10.73,3.08c-.56.21-1.07.2-1.52-.05-.49-.26-.82-.7-1.01-1.32L.14,38.44c-.2-.66-.19-1.19.03-1.59.25-.46.7-.79,1.36-.98l34.56-10.33Z"/>
    <path class="cls-3" d="m54.81,4.61c0-1.67.42-2.86,1.25-3.56.83-.7,2.13-1.05,3.89-1.05h16.13c1.62,0,2.93.35,3.93,1.05,1,.7,1.49,1.88,1.49,3.56v11.67c0,.48-.13,1-.38,1.55-.26.56-.62,1.1-1.08,1.62-.46.52-1.03.95-1.7,1.29-.67.34-1.43.51-2.26.51h-16.13c-3.43,0-5.15-1.65-5.15-4.96V4.61Z"/>
    <path class="cls-3" d="m60.74,96.23c-.48.14-1,.07-1.54-.22-.57-.31-.94-.75-1.12-1.32l-3.17-10.56c-.09-.31-.12-.6-.08-.88.04-.27.09-.54.15-.8.16-.17.34-.35.54-.54.2-.19.44-.36.73-.49l21.62-6.56-6.43-21.67c-.11-.69-.06-1.23.16-1.63.29-.54.79-.92,1.49-1.13l10.73-3.08c.56-.21,1.07-.2,1.52.04.49.26.82.7,1.01,1.32l10.31,34.6c.2.66.19,1.19-.03,1.59-.25.46-.7.79-1.36.98l-34.56,10.33Z"/>
  </g>
</svg>